<?xml version="1.0" standalone="no"?>
<!DOCTYPE svg PUBLIC "-//W3C//DTD SVG 20010904//EN"
 "http://www.w3.org/TR/2001/REC-SVG-20010904/DTD/svg10.dtd">
<svg version="1.0" xmlns="http://www.w3.org/2000/svg"
 width="504.000000pt" height="504.000000pt" viewBox="0 0 504.000000 504.000000"
 preserveAspectRatio="xMidYMid meet">
<metadata>
Created by potrace 1.14, written by Peter Selinger 2001-2017
</metadata>
<g transform="translate(0.000000,504.000000) scale(0.100000,-0.100000)"
fill="#000000" stroke="none">
<path d="M2422 4499 c-18 -42 -35 -87 -85 -216 -12 -32 -26 -61 -30 -64 -5 -4
-36 -9 -70 -12 -62 -6 -211 -42 -303 -73 -266 -89 -533 -266 -710 -468 -286
-329 -436 -713 -438 -1126 -2 -474 217 -951 583 -1270 137 -120 427 -292 492
-293 27 0 36 -11 137 -162 34 -50 53 -70 67 -68 11 1 82 17 159 37 214 56 338
48 541 -33 42 -17 82 -31 89 -31 12 0 57 69 107 164 26 49 30 52 110 82 267
97 583 334 751 564 228 311 341 661 333 1030 -4 150 -10 205 -37 330 -124 579
-533 1042 -1095 1240 -123 44 -183 58 -342 82 -55 9 -76 9 -79 0 -2 -6 -9 -9
-16 -6 -13 5 -37 61 -97 229 -18 50 -36 94 -40 99 -5 5 -17 -11 -27 -35z m449
-898 c208 -71 442 -262 559 -455 68 -114 103 -192 136 -311 27 -92 29 -113 29
-275 0 -186 -11 -255 -59 -383 -28 -74 -82 -183 -95 -191 -5 -3 -19 20 -30 52
-61 160 -85 223 -156 402 -43 107 -81 206 -85 220 -5 14 -19 54 -33 90 -14 36
-42 108 -62 160 -19 52 -56 147 -81 210 -25 63 -50 129 -56 145 -5 17 -14 39
-19 50 -4 11 -29 74 -54 140 -25 66 -50 130 -55 143 -12 27 -8 27 61 3z m-951
-144 c19 -18 43 -36 52 -40 13 -4 16 -15 13 -46 -2 -22 -9 -48 -14 -58 -5 -10
-46 -119 -90 -243 -44 -124 -105 -290 -136 -370 -31 -80 -70 -183 -87 -229
-16 -47 -55 -148 -85 -225 -31 -78 -56 -145 -58 -151 -5 -21 -17 -45 -24 -45
-11 0 -58 120 -81 206 -69 265 -42 562 72 790 76 151 212 314 339 404 29 21
56 39 59 39 3 1 21 -14 40 -32z"/>
</g>
</svg>
